<svg width="55" height="12" viewBox="0 0 55 12" fill="none" xmlns="http://www.w3.org/2000/svg">
<path d="M0.54 11C0.446667 11 0.367333 10.972 0.302 10.916C0.246 10.8507 0.218 10.7713 0.218 10.678V1.522C0.218 1.42867 0.246 1.354 0.302 1.298C0.367333 1.23267 0.446667 1.2 0.54 1.2H1.282C1.37533 1.2 1.45 1.23267 1.506 1.298C1.57133 1.354 1.604 1.42867 1.604 1.522V9.782H6.252C6.35467 9.782 6.434 9.81467 6.49 9.88C6.55533 9.936 6.588 10.0153 6.588 10.118V10.678C6.588 10.7713 6.55533 10.8507 6.49 10.916C6.42467 10.972 6.34533 11 6.252 11H0.54ZM10.7563 11.14C9.72961 11.14 8.93161 10.8507 8.36228 10.272C7.80228 9.69333 7.50361 8.92333 7.46628 7.962L7.45228 7.36L7.46628 6.758C7.50361 5.806 7.80695 5.04067 8.37628 4.462C8.94561 3.874 9.73895 3.58 10.7563 3.58C11.7736 3.58 12.5669 3.874 13.1363 4.462C13.7056 5.04067 14.0089 5.806 14.0463 6.758C14.0556 6.86067 14.0603 7.06133 14.0603 7.36C14.0603 7.65867 14.0556 7.85933 14.0463 7.962C14.0089 8.92333 13.7056 9.69333 13.1363 10.272C12.5763 10.8507 11.7829 11.14 10.7563 11.14ZM10.7563 10.062C11.3443 10.062 11.8063 9.87533 12.1423 9.502C12.4876 9.12867 12.6743 8.592 12.7023 7.892C12.7116 7.79867 12.7163 7.62133 12.7163 7.36C12.7163 7.09867 12.7116 6.92133 12.7023 6.828C12.6743 6.128 12.4876 5.59133 12.1423 5.218C11.8063 4.84467 11.3443 4.658 10.7563 4.658C10.1683 4.658 9.70161 4.84467 9.35628 5.218C9.01095 5.59133 8.82895 6.128 8.81028 6.828L8.79628 7.36L8.81028 7.892C8.82895 8.592 9.01095 9.12867 9.35628 9.502C9.70161 9.87533 10.1683 10.062 10.7563 10.062ZM18.7533 11.14C17.7547 11.14 16.9707 10.86 16.4013 10.3C15.8413 9.73067 15.5427 8.93733 15.5053 7.92L15.4913 7.36L15.5053 6.8C15.5427 5.78267 15.8413 4.994 16.4013 4.434C16.9707 3.86467 17.7547 3.58 18.7533 3.58C19.4253 3.58 19.9947 3.70133 20.4613 3.944C20.928 4.18667 21.2733 4.48533 21.4973 4.84C21.7307 5.19467 21.8567 5.54933 21.8753 5.904C21.8847 5.99733 21.8567 6.072 21.7913 6.128C21.726 6.184 21.6467 6.212 21.5533 6.212H20.8813C20.788 6.212 20.718 6.19333 20.6713 6.156C20.6247 6.11867 20.578 6.044 20.5313 5.932C20.3727 5.484 20.1487 5.16667 19.8593 4.98C19.57 4.784 19.206 4.686 18.7673 4.686C18.1887 4.686 17.7267 4.868 17.3813 5.232C17.0453 5.58667 16.8633 6.13267 16.8353 6.87L16.8213 7.374L16.8353 7.85C16.8633 8.59667 17.0453 9.14733 17.3813 9.502C17.7173 9.85667 18.1793 10.034 18.7673 10.034C19.206 10.034 19.57 9.94067 19.8593 9.754C20.1487 9.558 20.3727 9.236 20.5313 8.788C20.578 8.676 20.6247 8.60133 20.6713 8.564C20.718 8.51733 20.788 8.494 20.8813 8.494H21.5533C21.6467 8.494 21.726 8.52667 21.7913 8.592C21.8567 8.648 21.8847 8.72267 21.8753 8.816C21.8567 9.16133 21.7307 9.516 21.4973 9.88C21.2733 10.2347 20.928 10.5333 20.4613 10.776C20.004 11.0187 19.4347 11.14 18.7533 11.14ZM25.568 11.14C25.1106 11.14 24.686 11.0467 24.294 10.86C23.902 10.6733 23.5893 10.4213 23.356 10.104C23.132 9.77733 23.02 9.418 23.02 9.026C23.02 8.41 23.272 7.906 23.776 7.514C24.2893 7.11267 24.98 6.85133 25.848 6.73L27.934 6.436V6.03C27.934 5.078 27.388 4.602 26.296 4.602C25.8853 4.602 25.5493 4.69067 25.288 4.868C25.0266 5.036 24.8306 5.23667 24.7 5.47C24.672 5.554 24.6346 5.61467 24.588 5.652C24.5506 5.68933 24.4946 5.708 24.42 5.708H23.818C23.734 5.708 23.6593 5.68 23.594 5.624C23.538 5.55867 23.51 5.484 23.51 5.4C23.5193 5.176 23.622 4.924 23.818 4.644C24.0233 4.35467 24.336 4.10733 24.756 3.902C25.176 3.68733 25.694 3.58 26.31 3.58C27.3553 3.58 28.1066 3.82733 28.564 4.322C29.0213 4.80733 29.25 5.414 29.25 6.142V10.678C29.25 10.7713 29.2173 10.8507 29.152 10.916C29.096 10.972 29.0213 11 28.928 11H28.284C28.1906 11 28.1113 10.972 28.046 10.916C27.99 10.8507 27.962 10.7713 27.962 10.678V10.076C27.7566 10.3747 27.458 10.6267 27.066 10.832C26.674 11.0373 26.1746 11.14 25.568 11.14ZM25.862 10.09C26.4686 10.09 26.9633 9.894 27.346 9.502C27.738 9.10067 27.934 8.52667 27.934 7.78V7.388L26.31 7.626C25.6473 7.71933 25.148 7.878 24.812 8.102C24.476 8.31667 24.308 8.592 24.308 8.928C24.308 9.30133 24.462 9.59067 24.77 9.796C25.078 9.992 25.442 10.09 25.862 10.09ZM34.0362 11C32.5615 11 31.8242 10.1787 31.8242 8.536V4.84H30.7322C30.6389 4.84 30.5595 4.812 30.4942 4.756C30.4382 4.69067 30.4102 4.61133 30.4102 4.518V4.042C30.4102 3.94867 30.4382 3.874 30.4942 3.818C30.5595 3.75267 30.6389 3.72 30.7322 3.72H31.8242V1.382C31.8242 1.28867 31.8522 1.214 31.9082 1.158C31.9735 1.09267 32.0529 1.06 32.1462 1.06H32.8042C32.8975 1.06 32.9722 1.09267 33.0282 1.158C33.0935 1.214 33.1262 1.28867 33.1262 1.382V3.72H34.8622C34.9555 3.72 35.0302 3.75267 35.0862 3.818C35.1515 3.874 35.1842 3.94867 35.1842 4.042V4.518C35.1842 4.61133 35.1515 4.69067 35.0862 4.756C35.0302 4.812 34.9555 4.84 34.8622 4.84H33.1262V8.438C33.1262 8.90467 33.2055 9.25933 33.3642 9.502C33.5229 9.73533 33.7842 9.852 34.1482 9.852H35.0022C35.0955 9.852 35.1702 9.88467 35.2262 9.95C35.2915 10.006 35.3242 10.0807 35.3242 10.174V10.678C35.3242 10.7713 35.2915 10.8507 35.2262 10.916C35.1702 10.972 35.0955 11 35.0022 11H34.0362ZM36.873 2.362C36.7796 2.362 36.7003 2.334 36.635 2.278C36.579 2.21267 36.551 2.13333 36.551 2.04V1.284C36.551 1.19067 36.579 1.11133 36.635 1.046C36.7003 0.980666 36.7796 0.947999 36.873 0.947999H37.755C37.8483 0.947999 37.9276 0.980666 37.993 1.046C38.0583 1.11133 38.091 1.19067 38.091 1.284V2.04C38.091 2.13333 38.0583 2.21267 37.993 2.278C37.9276 2.334 37.8483 2.362 37.755 2.362H36.873ZM36.985 11C36.8916 11 36.8123 10.972 36.747 10.916C36.691 10.8507 36.663 10.7713 36.663 10.678V4.042C36.663 3.94867 36.691 3.874 36.747 3.818C36.8123 3.75267 36.8916 3.72 36.985 3.72H37.657C37.7503 3.72 37.825 3.75267 37.881 3.818C37.9463 3.874 37.979 3.94867 37.979 4.042V10.678C37.979 10.7713 37.9463 10.8507 37.881 10.916C37.825 10.972 37.7503 11 37.657 11H36.985ZM43.0356 11.14C42.0089 11.14 41.2109 10.8507 40.6416 10.272C40.0816 9.69333 39.7829 8.92333 39.7456 7.962L39.7316 7.36L39.7456 6.758C39.7829 5.806 40.0862 5.04067 40.6556 4.462C41.2249 3.874 42.0182 3.58 43.0356 3.58C44.0529 3.58 44.8462 3.874 45.4156 4.462C45.9849 5.04067 46.2882 5.806 46.3256 6.758C46.3349 6.86067 46.3396 7.06133 46.3396 7.36C46.3396 7.65867 46.3349 7.85933 46.3256 7.962C46.2882 8.92333 45.9849 9.69333 45.4156 10.272C44.8556 10.8507 44.0622 11.14 43.0356 11.14ZM43.0356 10.062C43.6236 10.062 44.0856 9.87533 44.4216 9.502C44.7669 9.12867 44.9536 8.592 44.9816 7.892C44.9909 7.79867 44.9956 7.62133 44.9956 7.36C44.9956 7.09867 44.9909 6.92133 44.9816 6.828C44.9536 6.128 44.7669 5.59133 44.4216 5.218C44.0856 4.84467 43.6236 4.658 43.0356 4.658C42.4476 4.658 41.9809 4.84467 41.6356 5.218C41.2902 5.59133 41.1082 6.128 41.0896 6.828L41.0756 7.36L41.0896 7.892C41.1082 8.592 41.2902 9.12867 41.6356 9.502C41.9809 9.87533 42.4476 10.062 43.0356 10.062ZM48.4146 11C48.3213 11 48.242 10.972 48.1766 10.916C48.1206 10.8507 48.0926 10.7713 48.0926 10.678V4.042C48.0926 3.94867 48.1206 3.874 48.1766 3.818C48.242 3.75267 48.3213 3.72 48.4146 3.72H49.0726C49.166 3.72 49.2406 3.75267 49.2966 3.818C49.362 3.874 49.3946 3.94867 49.3946 4.042V4.658C49.6653 4.31267 49.9826 4.04667 50.3466 3.86C50.72 3.67333 51.182 3.58 51.7326 3.58C52.6286 3.58 53.324 3.86933 53.8186 4.448C54.3226 5.01733 54.5746 5.778 54.5746 6.73V10.678C54.5746 10.7713 54.542 10.8507 54.4766 10.916C54.4206 10.972 54.346 11 54.2526 11H53.5526C53.4593 11 53.38 10.972 53.3146 10.916C53.2586 10.8507 53.2306 10.7713 53.2306 10.678V6.8C53.2306 6.13733 53.0673 5.624 52.7406 5.26C52.4233 4.896 51.9613 4.714 51.3546 4.714C50.7666 4.714 50.3 4.90067 49.9546 5.274C49.6093 5.638 49.4366 6.14667 49.4366 6.8V10.678C49.4366 10.7713 49.404 10.8507 49.3386 10.916C49.2826 10.972 49.208 11 49.1146 11H48.4146Z" fill="#555555"/>
</svg>
