<svg width="56" height="56" viewBox="0 0 56 56" fill="none" xmlns="http://www.w3.org/2000/svg">
<path d="M55.9585 24.459L52.2253 12.3256C52.1047 11.934 51.7429 11.6667 51.3332 11.6667H33.053L22.1263 0.740043C21.7622 0.375715 21.1706 0.375715 20.8065 0.740043L9.87984 11.6667H4.66649C4.25677 11.6667 3.89495 11.934 3.77442 12.3256L0.0410173 24.459C-0.0460452 24.7422 0.00634545 25.0497 0.18233 25.288C0.358205 25.5262 0.636892 25.6668 0.93308 25.6668H3.73308V54.6001C3.73308 55.1156 4.151 55.5334 4.66638 55.5334H10.2664H16.7998H26.1331H32.6664H51.3331C51.8486 55.5334 52.2664 55.1155 52.2664 54.6001V25.6667H55.0664C55.3626 25.6667 55.6413 25.5262 55.8172 25.288C55.9932 25.0497 56.0456 24.7421 55.9585 24.459ZM9.33308 53.6667H5.59978V25.6667H9.33308V53.6667ZM9.33308 23.8001H4.66649H2.1968L5.35566 13.5334H9.33308V23.8001ZM25.1998 53.6667H17.7331V38.7334H25.1998V53.6667ZM31.7331 24.7334V53.6667H27.0664V37.8001C27.0664 37.2846 26.6485 36.8668 26.1331 36.8668H16.7998C16.2843 36.8668 15.8665 37.2847 15.8665 37.8001V53.6668H11.1998V24.7334V12.9867L21.4665 2.71995L31.7332 12.9867V24.7334H31.7331ZM50.3998 53.6667H33.5998V25.6667H50.3998V53.6667ZM51.3331 23.8001H33.5998V13.5334H50.6438L53.8027 23.8001H51.3331Z" fill="#19BCE4"/>
</svg>
