<svg width="32" height="12" viewBox="0 0 32 12" fill="none" xmlns="http://www.w3.org/2000/svg">
<path d="M0.54 11C0.446667 11 0.367333 10.972 0.302 10.916C0.246 10.8507 0.218 10.7713 0.218 10.678V1.536C0.218 1.43333 0.246 1.354 0.302 1.298C0.367333 1.23267 0.446667 1.2 0.54 1.2H4.096C5.15067 1.2 5.98133 1.45667 6.588 1.97C7.19467 2.48333 7.498 3.22533 7.498 4.196C7.498 5.16667 7.19467 5.90867 6.588 6.422C5.99067 6.926 5.16 7.178 4.096 7.178H1.618V10.678C1.618 10.7713 1.58533 10.8507 1.52 10.916C1.45467 10.972 1.37533 11 1.282 11H0.54ZM4.026 6.002C4.70733 6.002 5.22067 5.848 5.566 5.54C5.92067 5.232 6.098 4.784 6.098 4.196C6.098 3.608 5.92533 3.16 5.58 2.852C5.23467 2.53467 4.71667 2.376 4.026 2.376H1.604V6.002H4.026ZM9.34042 11C9.24709 11 9.16776 10.972 9.10242 10.916C9.04642 10.8507 9.01842 10.7713 9.01842 10.678V4.056C9.01842 3.96267 9.04642 3.88333 9.10242 3.818C9.16776 3.75267 9.24709 3.72 9.34042 3.72H9.98442C10.0778 3.72 10.1571 3.75267 10.2224 3.818C10.2878 3.88333 10.3204 3.96267 10.3204 4.056V4.672C10.7031 4.03733 11.3564 3.72 12.2804 3.72H12.8264C12.9198 3.72 12.9944 3.75267 13.0504 3.818C13.1158 3.874 13.1484 3.94867 13.1484 4.042V4.616C13.1484 4.70933 13.1158 4.784 13.0504 4.84C12.9944 4.896 12.9198 4.924 12.8264 4.924H11.9864C11.4824 4.924 11.0858 5.07333 10.7964 5.372C10.5071 5.66133 10.3624 6.058 10.3624 6.562V10.678C10.3624 10.7713 10.3298 10.8507 10.2644 10.916C10.1991 10.972 10.1198 11 10.0264 11H9.34042ZM14.5468 2.362C14.4534 2.362 14.3741 2.334 14.3088 2.278C14.2528 2.21267 14.2248 2.13333 14.2248 2.04V1.284C14.2248 1.19067 14.2528 1.11133 14.3088 1.046C14.3741 0.980666 14.4534 0.947999 14.5468 0.947999H15.4288C15.5221 0.947999 15.6014 0.980666 15.6668 1.046C15.7321 1.11133 15.7648 1.19067 15.7648 1.284V2.04C15.7648 2.13333 15.7321 2.21267 15.6668 2.278C15.6014 2.334 15.5221 2.362 15.4288 2.362H14.5468ZM14.6588 11C14.5654 11 14.4861 10.972 14.4208 10.916C14.3648 10.8507 14.3368 10.7713 14.3368 10.678V4.042C14.3368 3.94867 14.3648 3.874 14.4208 3.818C14.4861 3.75267 14.5654 3.72 14.6588 3.72H15.3308C15.4241 3.72 15.4988 3.75267 15.5548 3.818C15.6201 3.874 15.6528 3.94867 15.6528 4.042V10.678C15.6528 10.7713 15.6201 10.8507 15.5548 10.916C15.4988 10.972 15.4241 11 15.3308 11H14.6588ZM20.6674 11.14C19.6687 11.14 18.8847 10.86 18.3154 10.3C17.7554 9.73067 17.4567 8.93733 17.4194 7.92L17.4054 7.36L17.4194 6.8C17.4567 5.78267 17.7554 4.994 18.3154 4.434C18.8847 3.86467 19.6687 3.58 20.6674 3.58C21.3394 3.58 21.9087 3.70133 22.3754 3.944C22.8421 4.18667 23.1874 4.48533 23.4114 4.84C23.6447 5.19467 23.7707 5.54933 23.7894 5.904C23.7987 5.99733 23.7707 6.072 23.7054 6.128C23.6401 6.184 23.5607 6.212 23.4674 6.212H22.7954C22.7021 6.212 22.6321 6.19333 22.5854 6.156C22.5387 6.11867 22.4921 6.044 22.4454 5.932C22.2867 5.484 22.0627 5.16667 21.7734 4.98C21.4841 4.784 21.1201 4.686 20.6814 4.686C20.1027 4.686 19.6407 4.868 19.2954 5.232C18.9594 5.58667 18.7774 6.13267 18.7494 6.87L18.7354 7.374L18.7494 7.85C18.7774 8.59667 18.9594 9.14733 19.2954 9.502C19.6314 9.85667 20.0934 10.034 20.6814 10.034C21.1201 10.034 21.4841 9.94067 21.7734 9.754C22.0627 9.558 22.2867 9.236 22.4454 8.788C22.4921 8.676 22.5387 8.60133 22.5854 8.564C22.6321 8.51733 22.7021 8.494 22.7954 8.494H23.4674C23.5607 8.494 23.6401 8.52667 23.7054 8.592C23.7707 8.648 23.7987 8.72267 23.7894 8.816C23.7707 9.16133 23.6447 9.516 23.4114 9.88C23.1874 10.2347 22.8421 10.5333 22.3754 10.776C21.9181 11.0187 21.3487 11.14 20.6674 11.14ZM28.364 11.14C27.4027 11.14 26.6327 10.846 26.054 10.258C25.4847 9.66067 25.172 8.84867 25.116 7.822L25.102 7.346L25.116 6.884C25.1813 5.876 25.4987 5.07333 26.068 4.476C26.6467 3.87867 27.4073 3.58 28.35 3.58C29.386 3.58 30.1887 3.91133 30.758 4.574C31.3273 5.22733 31.612 6.114 31.612 7.234V7.472C31.612 7.56533 31.5793 7.64467 31.514 7.71C31.458 7.766 31.3833 7.794 31.29 7.794H26.446V7.92C26.474 8.52667 26.656 9.04467 26.992 9.474C27.3373 9.894 27.79 10.104 28.35 10.104C28.7793 10.104 29.1293 10.02 29.4 9.852C29.68 9.67467 29.8853 9.49267 30.016 9.306C30.1 9.194 30.1607 9.12867 30.198 9.11C30.2447 9.082 30.324 9.068 30.436 9.068H31.122C31.206 9.068 31.276 9.09133 31.332 9.138C31.388 9.18467 31.416 9.25 31.416 9.334C31.416 9.53933 31.2853 9.78667 31.024 10.076C30.772 10.3653 30.4127 10.6173 29.946 10.832C29.4887 11.0373 28.9613 11.14 28.364 11.14ZM30.282 6.828V6.786C30.282 6.142 30.1047 5.61933 29.75 5.218C29.4047 4.80733 28.938 4.602 28.35 4.602C27.762 4.602 27.2953 4.80733 26.95 5.218C26.614 5.61933 26.446 6.142 26.446 6.786V6.828H30.282Z" fill="#555555"/>
</svg>
