<svg width="66" height="14" viewBox="0 0 66 14" fill="none" xmlns="http://www.w3.org/2000/svg">
<path d="M0.54 11C0.446667 11 0.367333 10.972 0.302 10.916C0.246 10.8507 0.218 10.7713 0.218 10.678V1.536C0.218 1.43333 0.246 1.354 0.302 1.298C0.367333 1.23267 0.446667 1.2 0.54 1.2H4.096C5.15067 1.2 5.98133 1.45667 6.588 1.97C7.19467 2.48333 7.498 3.22533 7.498 4.196C7.498 5.16667 7.19467 5.90867 6.588 6.422C5.99067 6.926 5.16 7.178 4.096 7.178H1.618V10.678C1.618 10.7713 1.58533 10.8507 1.52 10.916C1.45467 10.972 1.37533 11 1.282 11H0.54ZM4.026 6.002C4.70733 6.002 5.22067 5.848 5.566 5.54C5.92067 5.232 6.098 4.784 6.098 4.196C6.098 3.608 5.92533 3.16 5.58 2.852C5.23467 2.53467 4.71667 2.376 4.026 2.376H1.604V6.002H4.026ZM9.34042 11C9.24709 11 9.16776 10.972 9.10242 10.916C9.04642 10.8507 9.01842 10.7713 9.01842 10.678V4.056C9.01842 3.96267 9.04642 3.88333 9.10242 3.818C9.16776 3.75267 9.24709 3.72 9.34042 3.72H9.98442C10.0778 3.72 10.1571 3.75267 10.2224 3.818C10.2878 3.88333 10.3204 3.96267 10.3204 4.056V4.672C10.7031 4.03733 11.3564 3.72 12.2804 3.72H12.8264C12.9198 3.72 12.9944 3.75267 13.0504 3.818C13.1158 3.874 13.1484 3.94867 13.1484 4.042V4.616C13.1484 4.70933 13.1158 4.784 13.0504 4.84C12.9944 4.896 12.9198 4.924 12.8264 4.924H11.9864C11.4824 4.924 11.0858 5.07333 10.7964 5.372C10.5071 5.66133 10.3624 6.058 10.3624 6.562V10.678C10.3624 10.7713 10.3298 10.8507 10.2644 10.916C10.1991 10.972 10.1198 11 10.0264 11H9.34042ZM17.1821 11.14C16.1554 11.14 15.3574 10.8507 14.7881 10.272C14.2281 9.69333 13.9294 8.92333 13.8921 7.962L13.8781 7.36L13.8921 6.758C13.9294 5.806 14.2327 5.04067 14.8021 4.462C15.3714 3.874 16.1647 3.58 17.1821 3.58C18.1994 3.58 18.9927 3.874 19.5621 4.462C20.1314 5.04067 20.4347 5.806 20.4721 6.758C20.4814 6.86067 20.4861 7.06133 20.4861 7.36C20.4861 7.65867 20.4814 7.85933 20.4721 7.962C20.4347 8.92333 20.1314 9.69333 19.5621 10.272C19.0021 10.8507 18.2087 11.14 17.1821 11.14ZM17.1821 10.062C17.7701 10.062 18.2321 9.87533 18.5681 9.502C18.9134 9.12867 19.1001 8.592 19.1281 7.892C19.1374 7.79867 19.1421 7.62133 19.1421 7.36C19.1421 7.09867 19.1374 6.92133 19.1281 6.828C19.1001 6.128 18.9134 5.59133 18.5681 5.218C18.2321 4.84467 17.7701 4.658 17.1821 4.658C16.5941 4.658 16.1274 4.84467 15.7821 5.218C15.4367 5.59133 15.2547 6.128 15.2361 6.828L15.2221 7.36L15.2361 7.892C15.2547 8.592 15.4367 9.12867 15.7821 9.502C16.1274 9.87533 16.5941 10.062 17.1821 10.062ZM22.5751 13.66C22.4818 13.66 22.4025 13.6273 22.3371 13.562C22.2811 13.506 22.2531 13.4313 22.2531 13.338V4.042C22.2531 3.94867 22.2811 3.874 22.3371 3.818C22.4025 3.75267 22.4818 3.72 22.5751 3.72H23.2191C23.3125 3.72 23.3871 3.75267 23.4431 3.818C23.5085 3.874 23.5411 3.94867 23.5411 4.042V4.658C24.0638 3.93933 24.8291 3.58 25.8371 3.58C26.8171 3.58 27.5498 3.888 28.0351 4.504C28.5298 5.12 28.7958 5.91333 28.8331 6.884C28.8425 6.98667 28.8471 7.14533 28.8471 7.36C28.8471 7.57467 28.8425 7.73333 28.8331 7.836C28.7958 8.79733 28.5298 9.59067 28.0351 10.216C27.5405 10.832 26.8078 11.14 25.8371 11.14C24.8665 11.14 24.1105 10.79 23.5691 10.09V13.338C23.5691 13.4313 23.5411 13.506 23.4851 13.562C23.4291 13.6273 23.3545 13.66 23.2611 13.66H22.5751ZM25.5431 10.006C26.2058 10.006 26.6865 9.80067 26.9851 9.39C27.2931 8.97933 27.4611 8.438 27.4891 7.766C27.4985 7.67267 27.5031 7.53733 27.5031 7.36C27.5031 5.596 26.8498 4.714 25.5431 4.714C24.8991 4.714 24.4138 4.92867 24.0871 5.358C23.7698 5.778 23.5971 6.282 23.5691 6.87L23.5551 7.402L23.5691 7.948C23.5878 8.49867 23.7651 8.97933 24.1011 9.39C24.4371 9.80067 24.9178 10.006 25.5431 10.006ZM33.491 11.14C32.5296 11.14 31.7596 10.846 31.181 10.258C30.6116 9.66067 30.299 8.84867 30.243 7.822L30.229 7.346L30.243 6.884C30.3083 5.876 30.6256 5.07333 31.195 4.476C31.7736 3.87867 32.5343 3.58 33.477 3.58C34.513 3.58 35.3156 3.91133 35.885 4.574C36.4543 5.22733 36.739 6.114 36.739 7.234V7.472C36.739 7.56533 36.7063 7.64467 36.641 7.71C36.585 7.766 36.5103 7.794 36.417 7.794H31.573V7.92C31.601 8.52667 31.783 9.04467 32.119 9.474C32.4643 9.894 32.917 10.104 33.477 10.104C33.9063 10.104 34.2563 10.02 34.527 9.852C34.807 9.67467 35.0123 9.49267 35.143 9.306C35.227 9.194 35.2876 9.12867 35.325 9.11C35.3716 9.082 35.451 9.068 35.563 9.068H36.249C36.333 9.068 36.403 9.09133 36.459 9.138C36.515 9.18467 36.543 9.25 36.543 9.334C36.543 9.53933 36.4123 9.78667 36.151 10.076C35.899 10.3653 35.5396 10.6173 35.073 10.832C34.6156 11.0373 34.0883 11.14 33.491 11.14ZM35.409 6.828V6.786C35.409 6.142 35.2316 5.61933 34.877 5.218C34.5316 4.80733 34.065 4.602 33.477 4.602C32.889 4.602 32.4223 4.80733 32.077 5.218C31.741 5.61933 31.573 6.142 31.573 6.786V6.828H35.409ZM38.735 11C38.6416 11 38.5623 10.972 38.497 10.916C38.441 10.8507 38.413 10.7713 38.413 10.678V4.056C38.413 3.96267 38.441 3.88333 38.497 3.818C38.5623 3.75267 38.6416 3.72 38.735 3.72H39.379C39.4723 3.72 39.5516 3.75267 39.617 3.818C39.6823 3.88333 39.715 3.96267 39.715 4.056V4.672C40.0976 4.03733 40.751 3.72 41.675 3.72H42.221C42.3143 3.72 42.389 3.75267 42.445 3.818C42.5103 3.874 42.543 3.94867 42.543 4.042V4.616C42.543 4.70933 42.5103 4.784 42.445 4.84C42.389 4.896 42.3143 4.924 42.221 4.924H41.381C40.877 4.924 40.4803 5.07333 40.191 5.372C39.9016 5.66133 39.757 6.058 39.757 6.562V10.678C39.757 10.7713 39.7243 10.8507 39.659 10.916C39.5936 10.972 39.5143 11 39.421 11H38.735ZM46.5733 11C45.0986 11 44.3613 10.1787 44.3613 8.536V4.84H43.2693C43.176 4.84 43.0966 4.812 43.0313 4.756C42.9753 4.69067 42.9473 4.61133 42.9473 4.518V4.042C42.9473 3.94867 42.9753 3.874 43.0313 3.818C43.0966 3.75267 43.176 3.72 43.2693 3.72H44.3613V1.382C44.3613 1.28867 44.3893 1.214 44.4453 1.158C44.5106 1.09267 44.59 1.06 44.6833 1.06H45.3413C45.4346 1.06 45.5093 1.09267 45.5653 1.158C45.6306 1.214 45.6633 1.28867 45.6633 1.382V3.72H47.3993C47.4926 3.72 47.5673 3.75267 47.6233 3.818C47.6886 3.874 47.7213 3.94867 47.7213 4.042V4.518C47.7213 4.61133 47.6886 4.69067 47.6233 4.756C47.5673 4.812 47.4926 4.84 47.3993 4.84H45.6633V8.438C45.6633 8.90467 45.7426 9.25933 45.9013 9.502C46.06 9.73533 46.3213 9.852 46.6853 9.852H47.5393C47.6326 9.852 47.7073 9.88467 47.7633 9.95C47.8286 10.006 47.8613 10.0807 47.8613 10.174V10.678C47.8613 10.7713 47.8286 10.8507 47.7633 10.916C47.7073 10.972 47.6326 11 47.5393 11H46.5733ZM49.4101 2.362C49.3167 2.362 49.2374 2.334 49.1721 2.278C49.1161 2.21267 49.0881 2.13333 49.0881 2.04V1.284C49.0881 1.19067 49.1161 1.11133 49.1721 1.046C49.2374 0.980666 49.3167 0.947999 49.4101 0.947999H50.2921C50.3854 0.947999 50.4647 0.980666 50.5301 1.046C50.5954 1.11133 50.6281 1.19067 50.6281 1.284V2.04C50.6281 2.13333 50.5954 2.21267 50.5301 2.278C50.4647 2.334 50.3854 2.362 50.2921 2.362H49.4101ZM49.5221 11C49.4287 11 49.3494 10.972 49.2841 10.916C49.2281 10.8507 49.2001 10.7713 49.2001 10.678V4.042C49.2001 3.94867 49.2281 3.874 49.2841 3.818C49.3494 3.75267 49.4287 3.72 49.5221 3.72H50.1941C50.2874 3.72 50.3621 3.75267 50.4181 3.818C50.4834 3.874 50.5161 3.94867 50.5161 4.042V10.678C50.5161 10.7713 50.4834 10.8507 50.4181 10.916C50.3621 10.972 50.2874 11 50.1941 11H49.5221ZM55.5027 11.14C54.5414 11.14 53.7714 10.846 53.1927 10.258C52.6234 9.66067 52.3107 8.84867 52.2547 7.822L52.2407 7.346L52.2547 6.884C52.32 5.876 52.6374 5.07333 53.2067 4.476C53.7854 3.87867 54.546 3.58 55.4887 3.58C56.5247 3.58 57.3274 3.91133 57.8967 4.574C58.466 5.22733 58.7507 6.114 58.7507 7.234V7.472C58.7507 7.56533 58.718 7.64467 58.6527 7.71C58.5967 7.766 58.522 7.794 58.4287 7.794H53.5847V7.92C53.6127 8.52667 53.7947 9.04467 54.1307 9.474C54.476 9.894 54.9287 10.104 55.4887 10.104C55.918 10.104 56.268 10.02 56.5387 9.852C56.8187 9.67467 57.024 9.49267 57.1547 9.306C57.2387 9.194 57.2994 9.12867 57.3367 9.11C57.3834 9.082 57.4627 9.068 57.5747 9.068H58.2607C58.3447 9.068 58.4147 9.09133 58.4707 9.138C58.5267 9.18467 58.5547 9.25 58.5547 9.334C58.5547 9.53933 58.424 9.78667 58.1627 10.076C57.9107 10.3653 57.5514 10.6173 57.0847 10.832C56.6274 11.0373 56.1 11.14 55.5027 11.14ZM57.4207 6.828V6.786C57.4207 6.142 57.2434 5.61933 56.8887 5.218C56.5434 4.80733 56.0767 4.602 55.4887 4.602C54.9007 4.602 54.434 4.80733 54.0887 5.218C53.7527 5.61933 53.5847 6.142 53.5847 6.786V6.828H57.4207ZM62.9447 11.14C62.2913 11.14 61.7407 11.0373 61.2927 10.832C60.854 10.6173 60.5227 10.3747 60.2987 10.104C60.084 9.83333 59.9767 9.60933 59.9767 9.432C59.9767 9.33867 60.0093 9.26867 60.0747 9.222C60.1493 9.166 60.224 9.138 60.2987 9.138H60.9287C61.022 9.138 61.106 9.18467 61.1807 9.278C61.4047 9.53933 61.6473 9.74467 61.9087 9.894C62.17 10.0433 62.52 10.118 62.9587 10.118C63.444 10.118 63.836 10.0247 64.1347 9.838C64.4427 9.642 64.5967 9.376 64.5967 9.04C64.5967 8.816 64.5313 8.634 64.4007 8.494C64.2793 8.34467 64.0647 8.21867 63.7567 8.116C63.458 8.004 63.01 7.88267 62.4127 7.752C61.6007 7.57467 61.022 7.318 60.6767 6.982C60.3407 6.646 60.1727 6.212 60.1727 5.68C60.1727 5.32533 60.2753 4.98933 60.4807 4.672C60.6953 4.34533 61.0033 4.084 61.4047 3.888C61.8153 3.68267 62.3053 3.58 62.8747 3.58C63.472 3.58 63.9807 3.678 64.4007 3.874C64.8207 4.07 65.1333 4.30333 65.3387 4.574C65.5533 4.83533 65.6607 5.05467 65.6607 5.232C65.6607 5.316 65.628 5.386 65.5627 5.442C65.5067 5.498 65.4367 5.526 65.3527 5.526H64.7647C64.6527 5.526 64.5593 5.47933 64.4847 5.386C64.3353 5.20867 64.2047 5.07333 64.0927 4.98C63.99 4.87733 63.836 4.78867 63.6307 4.714C63.4347 4.63933 63.1827 4.602 62.8747 4.602C62.4267 4.602 62.0813 4.7 61.8387 4.896C61.596 5.08267 61.4747 5.33 61.4747 5.638C61.4747 5.834 61.526 6.002 61.6287 6.142C61.7313 6.27267 61.9273 6.394 62.2167 6.506C62.5153 6.618 62.9447 6.73467 63.5047 6.856C64.3913 7.04267 65.0167 7.31333 65.3807 7.668C65.754 8.01333 65.9407 8.45667 65.9407 8.998C65.9407 9.39933 65.824 9.76333 65.5907 10.09C65.3573 10.4167 65.012 10.6733 64.5547 10.86C64.1067 11.0467 63.57 11.14 62.9447 11.14Z" fill="#555555"/>
</svg>
